# Blender v2.80 (sub 75) OBJ File: 'ramp.blend'
# www.blender.org
mtllib ramp.mtl
o Cube
v -2.000000 0.014132 2.000000
v -2.000000 0.014132 -2.000000
v -2.000000 4.014132 -2.000000
v 2.000000 0.014132 2.000000
v 2.000000 0.014132 -2.000000
v 2.000000 4.014132 -2.000000
vt 0.651288 0.328439
vt 0.333555 0.326147
vt 0.335846 0.008414
vt 0.653580 0.010706
vt 0.309532 0.987359
vt -0.005755 0.667182
vt 0.311977 0.669627
vt 0.668607 0.662431
vt 0.674611 0.342231
vt 0.992349 0.340852
vt 0.993728 0.658591
vt 0.689815 0.323966
vt 0.686594 0.005830
vt 0.847272 0.163287
vt 0.020981 0.658822
vt 0.019602 0.341083
vt 0.337341 0.339704
vt 0.331338 0.659904
vn 0.0000 0.0000 -1.0000
vn 1.0000 0.0000 0.0000
vn 0.0000 -1.0000 0.0000
vn -1.0000 0.0000 0.0000
vn 0.0000 0.7071 0.7071
usemtl Material
s off
f 2/1/1 3/2/1 6/3/1 5/4/1
f 5/5/2 6/6/2 4/7/2
f 2/8/3 5/9/3 4/10/3 1/11/3
f 1/12/4 3/13/4 2/14/4
f 4/15/5 6/16/5 3/17/5 1/18/5
